# xmcd
#
# Track frame offsets: 
#        150
#        16496
#        37512
#        54631
#        67709
#
# Disc length: 1077 seconds
#
# Revision: 0
# Processed by: cddbd v1.5.2PL0 Copyright (c) Steve Scherf et al.
# Submitted via: ExactAudioCopy v1.0b3
#
DISCID=2f043305
DTITLE=Alper Cengiz - Alper Cengiz
DYEAR=2012
DGENRE=Blues
TTITLE0=İstanbul
TTITLE1=Rüya
TTITLE2=Yalan
TTITLE3=Yetmiyor (Öğrenci Blues)
TTITLE4=Yorgun Gemi
EXTD=
EXTT0=
EXTT1=
EXTT2=
EXTT3=
EXTT4=
PLAYORDER=
